<svg xmlns="http://www.w3.org/2000/svg" viewBox="0 0 1440 320"><path fill="#5000ca" fill-opacity="1" d="M0,160L30,154.7C60,149,120,139,180,112C240,85,300,43,360,48C420,53,480,107,540,128C600,149,660,139,720,122.7C780,107,840,85,900,80C960,75,1020,85,1080,90.7C1140,96,1200,96,1260,112C1320,128,1380,160,1410,176L1440,192L1440,320L1410,320C1380,320,1320,320,1260,320C1200,320,1140,320,1080,320C1020,320,960,320,900,320C840,320,780,320,720,320C660,320,600,320,540,320C480,320,420,320,360,320C300,320,240,320,180,320C120,320,60,320,30,320L0,320Z"></path></svg>