<svg xmlns="http://www.w3.org/2000/svg" viewBox="0 0 1440 320"><path fill="#e9e9ff" fill-opacity="1" d="M0,160L30,149.3C60,139,120,117,180,106.7C240,96,300,96,360,96C420,96,480,96,540,80C600,64,660,32,720,58.7C780,85,840,171,900,224C960,277,1020,299,1080,298.7C1140,299,1200,277,1260,245.3C1320,213,1380,171,1410,149.3L1440,128L1440,320L1410,320C1380,320,1320,320,1260,320C1200,320,1140,320,1080,320C1020,320,960,320,900,320C840,320,780,320,720,320C660,320,600,320,540,320C480,320,420,320,360,320C300,320,240,320,180,320C120,320,60,320,30,320L0,320Z"></path></svg>